<?xml version="1.0" encoding="UTF-8" standalone="no"?>
<!-- Created with Inkscape (http://www.inkscape.org/) -->

<svg
   xmlns:dc="http://purl.org/dc/elements/1.1/"
   xmlns:cc="http://creativecommons.org/ns#"
   xmlns:rdf="http://www.w3.org/1999/02/22-rdf-syntax-ns#"
   xmlns:svg="http://www.w3.org/2000/svg"
   xmlns="http://www.w3.org/2000/svg"
   xmlns:sodipodi="http://sodipodi.sourceforge.net/DTD/sodipodi-0.dtd"
   xmlns:inkscape="http://www.inkscape.org/namespaces/inkscape"
   sodipodi:docname="glyph.svg"
   inkscape:version="0.47pre4 r22446"
   version="1.1"
   id="svg2"
   height="1052.3622047"
   width="744.09448819">
  <defs
     id="defs4">
    <inkscape:perspective
       sodipodi:type="inkscape:persp3d"
       inkscape:vp_x="0 : 526.18109 : 1"
       inkscape:vp_y="0 : 1000 : 0"
       inkscape:vp_z="744.09448 : 526.18109 : 1"
       inkscape:persp3d-origin="372.04724 : 350.78739 : 1"
       id="perspective10" />
    <filter
       id="filter10267"
       inkscape:menu-tooltip="In and out glow with a possible offset and colorizable flood"
       inkscape:menu="Shadows and Glows"
       inkscape:label="Cutout Glow"
       color-interpolation-filters="sRGB">
      <feOffset
         id="feOffset10269"
         dy="3"
         dx="3" />
      <feGaussianBlur
         id="feGaussianBlur10271"
         result="result8"
         stdDeviation="3" />
      <feFlood
         id="feFlood10273"
         flood-color="rgb(0,0,0)"
         flood-opacity="1"
         in="result8"
         result="result10" />
      <feComposite
         id="feComposite10275"
         in2="SourceGraphic"
         operator="in"
         in="result10"
         result="result9" />
      <feBlend
         id="feBlend10277"
         in2="result9"
         mode="normal"
         in="result8" />
    </filter>
    <filter
       id="filter10279"
       inkscape:menu-tooltip="In and out glow with a possible offset and colorizable flood"
       inkscape:menu="Shadows and Glows"
       inkscape:label="Cutout Glow"
       color-interpolation-filters="sRGB">
      <feOffset
         id="feOffset10281"
         dy="3"
         dx="3" />
      <feGaussianBlur
         id="feGaussianBlur10283"
         result="result8"
         stdDeviation="3" />
      <feFlood
         id="feFlood10285"
         flood-color="rgb(0,0,0)"
         flood-opacity="1"
         in="result8"
         result="result10" />
      <feComposite
         id="feComposite10287"
         in2="SourceGraphic"
         operator="in"
         in="result10"
         result="result9" />
      <feBlend
         id="feBlend10289"
         in2="result9"
         mode="normal"
         in="result8" />
    </filter>
    <filter
       id="filter10291"
       inkscape:menu-tooltip="In and out glow with a possible offset and colorizable flood"
       inkscape:menu="Shadows and Glows"
       inkscape:label="Cutout Glow"
       color-interpolation-filters="sRGB">
      <feOffset
         id="feOffset10293"
         dy="3"
         dx="3" />
      <feGaussianBlur
         id="feGaussianBlur10295"
         result="result8"
         stdDeviation="3" />
      <feFlood
         id="feFlood10297"
         flood-color="rgb(0,0,0)"
         flood-opacity="1"
         in="result8"
         result="result10" />
      <feComposite
         id="feComposite10299"
         in2="SourceGraphic"
         operator="in"
         in="result10"
         result="result9" />
      <feBlend
         id="feBlend10301"
         in2="result9"
         mode="normal"
         in="result8" />
    </filter>
    <filter
       id="filter10303"
       inkscape:menu-tooltip="In and out glow with a possible offset and colorizable flood"
       inkscape:menu="Shadows and Glows"
       inkscape:label="Cutout Glow"
       color-interpolation-filters="sRGB">
      <feOffset
         id="feOffset10305"
         dy="3"
         dx="3" />
      <feGaussianBlur
         id="feGaussianBlur10307"
         result="result8"
         stdDeviation="3" />
      <feFlood
         id="feFlood10309"
         flood-color="rgb(0,0,0)"
         flood-opacity="1"
         in="result8"
         result="result10" />
      <feComposite
         id="feComposite10311"
         in2="SourceGraphic"
         operator="in"
         in="result10"
         result="result9" />
      <feBlend
         id="feBlend10313"
         in2="result9"
         mode="normal"
         in="result8" />
    </filter>
    <filter
       id="filter10315"
       inkscape:menu-tooltip="In and out glow with a possible offset and colorizable flood"
       inkscape:menu="Shadows and Glows"
       inkscape:label="Cutout Glow"
       color-interpolation-filters="sRGB">
      <feOffset
         id="feOffset10317"
         dy="3"
         dx="3" />
      <feGaussianBlur
         id="feGaussianBlur10319"
         result="result8"
         stdDeviation="3" />
      <feFlood
         id="feFlood10321"
         flood-color="rgb(0,0,0)"
         flood-opacity="1"
         in="result8"
         result="result10" />
      <feComposite
         id="feComposite10323"
         in2="SourceGraphic"
         operator="in"
         in="result10"
         result="result9" />
      <feBlend
         id="feBlend10325"
         in2="result9"
         mode="normal"
         in="result8" />
    </filter>
    <filter
       id="filter10327"
       inkscape:menu-tooltip="In and out glow with a possible offset and colorizable flood"
       inkscape:menu="Shadows and Glows"
       inkscape:label="Cutout Glow"
       color-interpolation-filters="sRGB">
      <feOffset
         id="feOffset10329"
         dy="3"
         dx="3" />
      <feGaussianBlur
         id="feGaussianBlur10331"
         result="result8"
         stdDeviation="3" />
      <feFlood
         id="feFlood10333"
         flood-color="rgb(0,0,0)"
         flood-opacity="1"
         in="result8"
         result="result10" />
      <feComposite
         id="feComposite10335"
         in2="SourceGraphic"
         operator="in"
         in="result10"
         result="result9" />
      <feBlend
         id="feBlend10337"
         in2="result9"
         mode="normal"
         in="result8" />
    </filter>
    <filter
       id="filter10339"
       inkscape:menu-tooltip="In and out glow with a possible offset and colorizable flood"
       inkscape:menu="Shadows and Glows"
       inkscape:label="Cutout Glow"
       color-interpolation-filters="sRGB">
      <feOffset
         id="feOffset10341"
         dy="3"
         dx="3" />
      <feGaussianBlur
         id="feGaussianBlur10343"
         result="result8"
         stdDeviation="3" />
      <feFlood
         id="feFlood10345"
         flood-color="rgb(0,0,0)"
         flood-opacity="1"
         in="result8"
         result="result10" />
      <feComposite
         id="feComposite10347"
         in2="SourceGraphic"
         operator="in"
         in="result10"
         result="result9" />
      <feBlend
         id="feBlend10349"
         in2="result9"
         mode="normal"
         in="result8" />
    </filter>
    <filter
       id="filter10351"
       inkscape:menu-tooltip="In and out glow with a possible offset and colorizable flood"
       inkscape:menu="Shadows and Glows"
       inkscape:label="Cutout Glow"
       color-interpolation-filters="sRGB">
      <feOffset
         id="feOffset10353"
         dy="3"
         dx="3" />
      <feGaussianBlur
         id="feGaussianBlur10355"
         result="result8"
         stdDeviation="3" />
      <feFlood
         id="feFlood10357"
         flood-color="rgb(0,0,0)"
         flood-opacity="1"
         in="result8"
         result="result10" />
      <feComposite
         id="feComposite10359"
         in2="SourceGraphic"
         operator="in"
         in="result10"
         result="result9" />
      <feBlend
         id="feBlend10361"
         in2="result9"
         mode="normal"
         in="result8" />
    </filter>
  </defs>
  <sodipodi:namedview
     id="base"
     pagecolor="#ffffff"
     bordercolor="#666666"
     borderopacity="1.0"
     inkscape:pageopacity="0.0"
     inkscape:pageshadow="2"
     inkscape:zoom="0.5"
     inkscape:cx="140.78311"
     inkscape:cy="625.26835"
     inkscape:document-units="px"
     inkscape:current-layer="svg2"
     showgrid="false"
     inkscape:object-paths="true"
     inkscape:window-width="1280"
     inkscape:window-height="750"
     inkscape:window-x="0"
     inkscape:window-y="26"
     inkscape:window-maximized="1" />
  <metadata
     id="metadata7">
    <rdf:RDF>
      <cc:Work
         rdf:about="">
        <dc:format>image/svg+xml</dc:format>
        <dc:type
           rdf:resource="http://purl.org/dc/dcmitype/StillImage" />
      </cc:Work>
    </rdf:RDF>
  </metadata>
  <g
     inkscape:label="Layer 1"
     inkscape:groupmode="layer"
     id="layer1">
    <path
       style="fill:#000000;fill-opacity:1;fill-rule:nonzero;stroke:none;filter:url(#filter10351)"
       id="path3146"
       d="m 135.90113,115.56774 c 9.36279,-1.58158 18.75987,-2.91951 28.16725,-4.20502 28.94119,-3.82366 58.02265,-6.37864 87.09204,-8.98268 34.37607,-2.85549 68.75754,-5.661683 103.15506,-8.249722 24.86202,-1.857154 49.73927,-3.495648 74.63685,-4.79105 21.43117,-1.285563 42.86792,-2.472992 64.31007,-3.559451 14.76281,-0.597858 29.53897,-1.078555 44.31506,-0.925837 13.77984,0.162265 27.51749,1.241719 41.24049,2.411887 11.03591,0.905512 22.06005,1.939146 33.08837,2.92975 7.92376,0.71257 15.86486,1.194199 23.78447,1.951135 1.34586,5.022814 -34.1708,14.539478 -35.51666,9.516658 l 0,0 c -7.91961,-0.75693 -15.86071,-1.23856 -23.78447,-1.951132 -11.02832,-0.990604 -22.05246,-2.024239 -33.08837,-2.92975 -13.723,-1.170168 -27.46065,-2.249622 -41.24049,-2.411888 -14.77609,-0.152717 -29.55225,0.32798 -44.31506,0.925837 -21.44215,1.086459 -42.8789,2.273889 -64.31008,3.559451 -24.89757,1.295402 -49.77482,2.933892 -74.63684,4.791052 -34.39752,2.58804 -68.77899,5.39423 -103.15506,8.24972 -29.06939,2.60404 -58.15085,5.15902 -87.09204,8.98268 -9.40739,1.28551 -18.80446,2.62344 -28.16726,4.20503 -1.345855,-5.02282 34.17081,-14.53948 35.51667,-9.51667 z" />
    <path
       style="fill:#000000;fill-opacity:1;fill-rule:nonzero;stroke:none;filter:url(#filter10339)"
       id="path3148"
       d="m 193.67577,220.21955 c 10.09553,-1.09403 20.1977,-2.12868 30.31431,-3.02968 26.98684,-2.15566 54.04982,-3.13021 81.10121,-4.05351 25.17605,-0.89692 50.34887,-1.5435 75.54018,-1.27348 25.50774,0.61269 50.99066,2.00034 76.44695,3.6957 17.06539,1.22977 34.12411,2.51921 51.21149,3.40464 6.22883,0.31451 12.46115,0.54909 18.69417,0.76102 1.34586,5.02282 -34.1708,14.53948 -35.51666,9.51667 l 0,0 c -6.23302,-0.21193 -12.46534,-0.44652 -18.69417,-0.76103 -17.08738,-0.88543 -34.1461,-2.17486 -51.21149,-3.40463 -25.45629,-1.69537 -50.93921,-3.08302 -76.44695,-3.69571 -25.19131,-0.27002 -50.36413,0.37656 -75.54018,1.27348 -27.05139,0.9233 -54.11438,1.89785 -81.10121,4.05351 -10.11661,0.901 -20.21878,1.93565 -30.31431,3.02968 -1.34586,-5.02282 34.1708,-14.53948 35.51666,-9.51666 z" />
    <path
       style="fill:#000000;fill-opacity:1;fill-rule:nonzero;stroke:none;filter:url(#filter10327)"
       id="path3182"
       d="m 130.4717,89.5584 c 0.0756,5.012571 -0.1116,10.020447 -0.30112,15.02831 -0.35625,6.67562 -0.86445,13.34193 -1.76358,19.96717 -1.19884,7.79255 -3.3998,15.39141 -5.52598,22.97088 -2.14104,7.79555 -5.41836,15.16498 -8.94612,22.4107 -3.43926,6.60743 -7.20673,13.04403 -11.25746,19.2943 -3.558531,5.41419 -7.656575,10.43317 -11.848518,15.36165 -3.799494,4.3681 -7.710915,8.63256 -11.491599,13.01675 -2.016608,2.35116 -4.128524,4.6185 -6.212323,6.90991 -5.121,0.90297 -11.505966,-35.30797 -6.384966,-36.21094 l 0,0 c 2.083799,-2.29141 4.195716,-4.55875 6.212323,-6.90991 3.780684,-4.38419 7.692105,-8.64865 11.491599,-13.01675 4.191943,-4.92848 8.289987,-9.94746 11.848519,-15.36165 4.050735,-6.25027 7.818195,-12.68687 11.257455,-19.29431 3.52776,-7.24571 6.80509,-14.61514 8.94612,-22.41069 2.12619,-7.57947 4.32714,-15.178329 5.52598,-22.970879 0.89913,-6.625239 1.40734,-13.291556 1.76358,-19.96717 0.18952,-5.007865 0.37673,-10.01574 0.30113,-15.028312 5.121,-0.90297 11.50596,35.30797 6.38496,36.210941 z" />
    <path
       style="fill:#000000;fill-opacity:1;fill-rule:nonzero;stroke:none;filter:url(#filter10315)"
       id="path3188"
       d="m 592.19143,162.5462 c 0.55825,-5.14831 1.38863,-10.2816 2.22032,-15.39559 1.48415,-9.74569 4.10819,-19.26034 6.89702,-28.69871 3.17242,-11.34919 7.18937,-22.416563 11.74834,-33.274115 3.68784,-8.626885 7.98363,-16.974483 12.6866,-25.087405 2.98369,-5.117854 6.37486,-9.976378 10.35869,-14.361983 1.44108,-1.519775 3.04031,-2.863623 4.66258,-4.181017 5.121,-0.90297 11.50596,35.30797 6.38496,36.210941 l 0,0 c -1.62227,1.317393 -3.22149,2.661241 -4.66257,4.181016 -3.98383,4.385605 -7.375,9.24413 -10.3587,14.361984 -4.70296,8.112919 -8.99875,16.460519 -12.6866,25.087409 -4.55896,10.85755 -8.57591,21.92492 -11.74834,33.27411 -2.78882,9.43838 -5.41287,18.95303 -6.89701,28.69871 -0.83169,5.11399 -1.66207,10.24728 -2.22033,15.39559 -5.121,0.90297 -11.50596,-35.30797 -6.38496,-36.21094 z" />
    <path
       style="fill:#000000;fill-opacity:1;fill-rule:nonzero;stroke:none;filter:url(#filter10303)"
       id="path3602"
       d="m 286.11925,340.12881 c 3.27827,0.38033 6.5176,1.05755 9.75074,1.71104 5.41246,1.02741 10.74591,2.39844 16.00953,4.01598 5.05536,1.56055 9.88176,3.71171 14.56088,6.16035 4.50356,2.40408 8.46163,5.60506 11.88984,9.36388 3.74755,4.44075 6.51933,9.55775 9.0294,14.76658 2.7678,5.74141 4.28764,11.93379 5.65123,18.12551 1.38913,7.3085 2.00368,14.73474 2.45062,22.15148 0.4936,7.83731 0.36405,15.68659 0.14149,23.52953 -0.50302,11.66274 -1.49373,23.29311 -2.4413,34.92552 -1.33457,14.87636 -2.8915,29.73111 -4.59429,44.56941 -1.48072,13.29044 -3.05452,26.56898 -4.63977,39.84721 -1.41922,12.2168 -2.86935,24.43021 -4.31455,36.6441 -1.2096,9.90036 -2.33164,19.81096 -3.35516,29.73221 -0.80956,7.66091 -1.69929,15.31214 -2.61219,22.96124 -0.83871,5.97184 -1.49352,11.97469 -2.62011,17.90131 -2.36573,10.67478 -11.09594,28.07145 -17.0313,31.53207 -1.59754,0.0264 -2.18707,-2.27301 -2.6579,-3.47003 -0.94392,-2.73646 -1.60455,-5.56369 -2.28178,-8.37574 -0.89845,-3.62133 -2.22865,-7.09987 -3.71544,-10.51431 -1.70578,-3.97554 -3.96473,-7.64557 -6.45393,-11.16866 -2.8607,-4.01694 -6.24427,-7.61056 -9.8432,-10.96659 -3.82318,-3.56237 -8.23357,-6.35989 -12.78635,-8.88102 -4.40272,-2.40092 -9.12034,-4.09891 -13.95439,-5.38225 -4.47762,-1.09625 -9.03286,-1.80241 -13.61892,-2.22999 -3.84032,-0.30494 -7.68341,-0.10963 -11.49025,0.43221 -4.17524,0.71705 -8.14527,2.26634 -12.05764,3.8427 -5.19616,-3 8.94598,-27.4949 14.14213,-24.4949 l 0,0 c 3.91237,-1.57636 7.88241,-3.12565 12.05764,-3.8427 3.80685,-0.54184 7.64993,-0.73714 11.49025,-0.4322 4.58606,0.42757 9.14131,1.13373 13.61893,2.22998 4.83404,1.28334 9.55167,2.98133 13.95439,5.38226 4.55278,2.52112 8.96317,5.31864 12.78635,8.88101 3.59893,3.35603 6.98249,6.94966 9.8432,10.96659 2.4892,3.52309 4.74815,7.19312 6.45392,11.16867 1.4868,3.41443 2.81699,6.89297 3.71545,10.5143 0.67723,2.81205 1.33785,5.63929 2.28178,8.37574 0.47083,1.19702 1.06036,3.49643 2.6579,3.47003 8.38306,-4.88775 0.57097,-0.43403 -13.20917,23.65136 -0.17163,0.29997 0.35775,-0.59338 0.49889,-0.90883 0.75062,-1.67759 1.04704,-3.50817 1.45731,-5.2848 1.12659,-5.92663 1.78139,-11.92947 2.62011,-17.90131 0.91289,-7.64911 1.80262,-15.30033 2.61219,-22.96124 1.02351,-9.92126 2.14556,-19.83186 3.35515,-29.73221 1.4452,-12.21389 2.89533,-24.4273 4.31455,-36.6441 1.58525,-13.27823 3.15906,-26.55677 4.63978,-39.84721 1.70278,-14.8383 3.25972,-29.69305 4.59428,-44.56941 0.94757,-11.63241 1.93828,-23.26278 2.44131,-34.92552 0.22255,-7.84294 0.35211,-15.69222 -0.1415,-23.52953 -0.44693,-7.41674 -1.06149,-14.84298 -2.45061,-22.15149 -1.3636,-6.19172 -2.88343,-12.38409 -5.65123,-18.12551 -2.51008,-5.20882 -5.28185,-10.32583 -9.02941,-14.76658 -3.42821,-3.75881 -7.38627,-6.95979 -11.88984,-9.36387 -4.67912,-2.44865 -9.50552,-4.59981 -14.56088,-6.16035 -5.26361,-1.61754 -10.59707,-2.98857 -16.00953,-4.01599 -3.23313,-0.65348 -6.47246,-1.3307 -9.75073,-1.71103 -5.19616,-3 8.94598,-27.4949 14.14213,-24.4949 z" />
    <path
       style="fill:#000000;fill-opacity:1;fill-rule:nonzero;stroke:none;filter:url(#filter10291)"
       id="path3614"
       d="m 555.52129,191.13177 c -0.35299,2.5315 -1.05204,4.98442 -1.80699,7.41983 -1.83067,5.2855 -4.29835,10.31271 -6.8662,15.27066 -5.58018,10.48386 -13.17342,19.63843 -20.8515,28.6219 -12.95337,14.43053 -26.79157,28.04362 -40.92896,41.30571 -11.4003,10.6668 -23.05402,21.06271 -35.07336,31.02728 -8.5887,7.1554 -17.64219,13.68836 -26.96449,19.8441 -7.56383,5.02432 -15.34465,9.70139 -23.18337,14.27983 -6.58732,3.88678 -13.22621,7.68316 -19.91993,11.3835 -5.3729,2.9958 -10.8569,5.78191 -16.37697,8.4943 -4.63292,2.33813 -9.35109,4.4883 -14.1433,6.47751 -3.08306,1.22512 -6.21214,2.32555 -9.35432,3.38739 -1.04188,5.90885 -28.89645,0.99733 -27.85457,-4.91151 l 0,0 c 3.14218,-1.06184 6.27126,-2.16228 9.35432,-3.38739 4.79221,-1.98921 9.51038,-4.13938 14.1433,-6.47752 5.52007,-2.71239 11.00407,-5.49849 16.37697,-8.49429 6.69372,-3.70034 13.33261,-7.49672 19.91993,-11.38351 7.83873,-4.57843 15.61954,-9.2555 23.18337,-14.27982 9.3223,-6.15574 18.37579,-12.6887 26.96449,-19.8441 12.01934,-9.96457 23.67307,-20.36049 35.07336,-31.02728 14.13739,-13.26209 27.97559,-26.87518 40.92896,-41.30571 7.67808,-8.98347 15.27132,-18.13804 20.8515,-28.6219 2.56785,-4.95795 5.03553,-9.98516 6.8662,-15.27067 0.75495,-2.4354 1.454,-4.88832 1.80699,-7.41982 1.04189,-5.90884 28.89646,-0.99733 27.85457,4.91151 z" />
    <path
       style="fill:#000000;fill-opacity:1;fill-rule:nonzero;stroke:none;filter:url(#filter10279)"
       id="path3650"
       d="m 72.258573,423.36003 c -9.004063,1.57809 -36.033038,6.21339 -27.012189,4.73427 10.085359,-1.65367 20.123272,-3.58765 30.205892,-5.25793 1.962209,-0.32506 10.645758,-1.07779 11.730698,-1.162 7.892191,-0.61252 11.915855,-0.76374 20.102906,-1.19071 34.35147,-1.54079 68.74904,-1.55929 103.12784,-1.54415 46.81651,0.0598 93.61341,1.32277 140.39479,3.02698 49.55184,1.78759 99.03834,4.84216 148.4865,8.45278 38.43046,2.86724 76.76268,6.81207 115.06642,11.00881 24.86218,2.74262 49.69698,5.71841 74.44272,9.37108 14.05795,2.15435 28.05346,4.6915 41.99789,7.48259 5.6278,0.58499 11.2774,3.22309 16.94081,3.39602 -9.53691,1.4248 -19.02164,3.25852 -28.61074,4.27441 -0.68103,0.0722 -1.16726,-0.71707 -1.76197,-1.05668 -0.79217,-0.45239 -1.59493,-0.88607 -2.39795,-1.31891 -3.03047,-1.63347 -6.06805,-3.25522 -9.10609,-4.87472 -6.80224,-3.66149 -13.47475,-7.55659 -20.18955,-11.37513 -7.05344,-3.98113 -13.72808,-8.59022 -20.40513,-13.16329 -6.23706,-4.37997 -12.43454,-8.81424 -18.70226,-13.15055 -0.69459,-3.93923 27.15998,-8.85074 27.85457,-4.91151 l 0,0 c 6.26772,4.33631 12.4652,8.77058 18.70226,13.15055 6.67705,4.57306 13.35169,9.18216 20.40513,13.16329 6.7148,3.81854 13.38731,7.71364 20.18955,11.37513 3.03804,1.6195 6.07562,3.24125 9.10609,4.87471 0.80302,0.43284 1.60578,0.86653 2.39795,1.31891 0.59471,0.33962 2.42466,0.88392 1.76197,1.05668 -8.922,2.326 -18.0656,3.69909 -27.0984,5.54863 -5.66341,-0.17294 -11.31301,-2.81104 -16.94081,-3.39603 -13.94443,-2.79109 -27.93994,-5.32824 -41.99789,-7.48259 -24.74574,-3.65267 -49.58054,-6.62846 -74.44272,-9.37108 -38.30374,-4.19673 -76.63596,-8.14157 -115.06642,-11.0088 -49.44816,-3.61063 -98.93465,-6.66519 -148.4865,-8.45279 -46.78138,-1.70421 -93.57828,-2.96719 -140.39479,-3.02697 -34.3788,-0.0152 -68.77637,0.003 -103.127835,1.54414 -9.038594,0.47138 -18.06505,0.92586 -27.073959,1.81825 -1.588746,0.15737 -6.32686,0.83898 -4.75965,0.53446 3.455191,-0.67137 69.566004,-12.37863 -3.193702,0.52366 -0.694593,-3.93923 27.159977,-8.85074 27.854569,-4.91151 z" />
    <path
       style="fill:#000000;fill-opacity:1;fill-rule:nonzero;stroke:none;filter:url(#filter10267)"
       id="path3718"
       d="m 276.03321,20.113377 c 4.28061,0.06127 8.52482,0.533595 12.76688,1.069488 5.56731,0.834603 11.07562,2.016085 16.49707,3.526491 5.07246,1.575584 9.71557,4.166396 14.12638,7.07788 4.29425,3.000654 8.039,6.669379 11.63348,10.456126 2.99404,3.197346 5.61581,6.714457 8.03595,10.358347 1.73999,2.587749 3.33282,5.266321 4.94882,7.931438 0.76406,4.333155 -29.87597,9.735818 -30.64002,5.402664 l 0,0 c -1.61601,-2.665118 -3.20884,-5.343689 -4.94882,-7.931439 -2.42015,-3.643889 -5.04192,-7.161001 -8.03596,-10.358346 -3.59448,-3.786747 -7.33922,-7.455472 -11.63348,-10.456127 -4.41081,-2.911483 -9.05392,-5.502296 -14.12637,-7.077879 -5.42146,-1.510406 -10.92977,-2.691889 -16.49708,-3.526491 -4.24206,-0.535893 -8.48627,-1.008217 -12.76687,-1.069488 -0.76406,-4.333154 29.87597,-9.735818 30.64002,-5.402664 z" />
  </g>
</svg>
