<?xml version="1.0" encoding="UTF-8" standalone="no"?>
<!-- Created with Inkscape (http://www.inkscape.org/) -->

<svg
   xmlns:svg="http://www.w3.org/2000/svg"
   xmlns="http://www.w3.org/2000/svg"
   version="1.1"
   width="388.73267"
   height="439.99896"
   id="svg2839">
  <defs
     id="defs2841" />
  <g
     transform="translate(-179.91938,-75.219847)"
     id="layer1">
    <path
       d="m 332.9286,75.219847 8.85,0 c 12.225,1.8625 24.475,3.9125 36.3625,7.3875 8.225,3.325 17.2875,8.075 20.4875,16.9375 2.5,6.987503 4.825,14.412503 3.875,21.912503 -0.525,3.7875 -2.4875,8.0625 -6.475,9.1375 -6.8375,1.5375 -13.95,-1.125 -19.175,-5.5375 -9.875,-8.0875 -19.75,-16.175 -30.1125,-23.6375 -6.3,-4.350003 -13.2875,-8.375003 -17.575,-14.925003 -1.725,-3.7375 -1.85,-11.25 3.7625,-11.275 z"
       id="path6"
       style="fill:#000000" />
    <path
       d="m 411.6786,150.36985 c 28.3875,-3.8875 56.7125,-8.2 85.1,-12.0375 6.3625,-0.7375 12.7875,1.4125 17.925,5.125 9.6375,6.9125 19.25,13.9 28.375,21.5 3.525,3.0625 7.3375,6.05 9.5125,10.28749 -4.225,5.9 -11.75,7.7 -18.15,10.2875 -17.7625,5.575 -33.9125,15.2375 -48.95,26.0375 -3.3625,2.175 -6.9,4.9375 -11.1125,4.7125 -2.975,-0.525 -3.425,-4.25 -2.3,-6.5625 4.275,-10.2875 8.8,-20.475 13.4125,-30.625 1.5875,-3.925 3.475,-8.12499 2.75,-12.43749 -1.825,-3.1625 -4.7,-6.175 -8.1125,-7.475 -12.5375,-0.85 -25.0625,1 -37.525,2.2375 -50.6125,6.1375 -101.6125,11.3375 -150.975,24.66249 -9.525,2.1125 -18.8,6.7125 -28.775,5.5625 -4.55,-0.3875 -8.75,-2.2375 -12.925,-3.975 -3.8,9.3375 -7.7,18.6375 -11.425,28 -5.2625,13.1875 -10.9,26.525 -19.8875,37.6625 -2.725,3.175 -7.425,7.0875 -11.6875,4.2375 -5.0625,-4.2 -6.4125,-11.1625 -8.0875,-17.2 -1.95,-8.8375 -4.4,-19.5 2.0875,-27.1 9.1,-10.2125 18.025,-20.6125 25.925,-31.7875 3.7875,-5.0625 5.85,-11.24999 6.125,-17.54999 0.4,-4.6125 -0.8875,-9.9125 2.225,-13.8625 1.9125,-2.1875 4.9875,-0.5375 6.8,0.9125 6.425,5.0125 10.8875,12.5625 12.6,20.4875 52.5375,-5.7375 104.525,-15.5 157.075,-21.1 z"
       id="path8"
       style="fill:#000000" />
    <path
       d="m 393.3536,210.36984 c 7.9625,-3.2375 17.375,-5.25 25.35,-0.875 9.175,5.15 18.2125,10.6875 26.45,17.275 3.7125,3.15 7.9875,6.8875 8,12.1875 0.125,4.475 -4.1625,7.25 -7.975,8.375 -12.75,3.8625 -23.625,11.8875 -33.9,20.0875 -13.1125,9.5625 -26.0875,19.325 -38.6875,29.55 8.125,9.025 14.175,19.8875 17.0875,31.7125 17.8875,-2.225 35.8375,-4.0625 53.7875,-5.725 23.2875,-3.3 46.5,-7.1125 69.6125,-11.5 6.1125,-1.5875 12.9125,-3.3875 18.925,-0.4375 12.325,5.7 24.0875,12.975 33.8,22.55 3.5875,3.2125 4.2,10.425 -0.575,12.7875 -4.9625,2.2125 -10.525,0.925 -15.7125,0.5 -22.925,-2.3375 -45.9625,-3.675 -68.9875,-4.4 -28.975,1.75 -58,3.125 -86.875,6.2125 1.3625,9.2625 2.05,18.6 2.475,27.95 3.0375,33.9 4.175,68.725 -4.725,101.8875 -2.35,9.3875 -5.1,18.9125 -10.475,27.075 -3.225,4.8375 -8.15,9.2625 -14.2125,9.625 -4.975,0.225 -9.2125,-2.9 -12.5875,-6.2 -16.25,-15.7125 -34.375,-29.325 -53.025,-42.05 -5.1625,-3.575 -10.7625,-6.6875 -15,-11.4125 2.075,-2.0625 5.1,-2.8 7.9375,-2.175 15.95,2.9375 31.8125,6.3 47.7125,9.4375 6.2625,0.5875 14.825,1.175 18.4375,-5.175 5.275,-9.575 6.0125,-20.775 7.65,-31.375 4.025,-25.0375 2.1625,-50.525 -0.6375,-75.575 -30.1125,2.425 -60.175,6.2 -89.7625,12.3875 -17.3375,3.9625 -35,6.3125 -52.35,10.2375 -5,1.5625 -10.4625,4.3875 -15.675,1.825 -9.95,-4.3375 -20.7625,-8.6875 -27.5875,-17.55 -3.2625,-3.6375 -2.5,-11.475 3.5,-11.225 24.25,-0.425 48.55,-1.125 72.6625,-3.95 25.1125,-3.2875 50.3375,-5.6125 75.525,-8.2375 9.9125,-0.85 19.7875,-2.3 29.75,-2.725 -2.9,-11.5625 -6.4125,-23 -11.325,-33.875 -1.3625,-3.2125 -3.0625,-6.3875 -3.4875,-9.9 -0.15,-2.8625 3.0125,-5.3125 5.7375,-4.2625 4.9,1.675 9.2,4.7375 13.0375,8.1625 10.8375,-16.0875 21.8375,-32.075 33.1375,-47.8375 2.125,-2.7625 2.775,-7.225 0.0375,-9.8125 -4,-3.875 -10.325,-4.425 -15.4,-2.575 -21.4375,7.7125 -42.825,15.5375 -64.375,22.9375 -5.3,2.3875 -10.6875,4.975 -16.6125,5.15 -10.325,0.775 -20.125,-4.7 -26.7375,-12.3125 -2.15,-2.5125 -3.925,-5.8625 -3.075,-9.25 1.0625,-2.9625 4.65,-3.3875 7.3625,-3.4 15.25,0.175 30.925,1.0375 45.6875,-3.575 22.1875,-6.3 44.325,-12.875 66.1,-20.525 z"
       id="path10"
       style="fill:#000000" />
  </g>
</svg>
